<svg xmlns="http://www.w3.org/2000/svg" viewBox="0 0 226.978 43.86">
  <defs>
    <style>
      .cls-1 {
        opacity: 0.5;
      }

      .cls-2 {
        fill: none;
      }

      .cls-3, .cls-4, .cls-5 {
        fill: #fff;
      }

      .cls-3 {
        font-size: 17px;
        letter-spacing: 0.025em;
      }

      .cls-3, .cls-5 {
        font-family: SegoeUI, Segoe UI;
      }

      .cls-5 {
        font-size: 7px;
      }
    </style>
  </defs>
  <g id="interchange_payment_final_logo" class="cls-1" transform="translate(-22.2 -258.9)">
    <rect id="Rectangle_41" data-name="Rectangle 41" class="cls-2" width="169.124" height="14.074" transform="translate(80.054 272.254)"/>
    <text id="Interchange_Payment" data-name="Interchange Payment" class="cls-3" transform="translate(80.019 282.943)"><tspan x="0" y="0">Interchange Payment</tspan></text>
    <path id="Path_2093" data-name="Path 2093" class="cls-4" d="M58.8,331.117c1.279,2.919,2.679,5.8,4,8.8,3.478.96,6.837,1.879,10.355,2.759,1.919-2.079,3.878-4.078,5.717-6.117-1.479-2.919-2.919-5.717-4.238-8.476-3.279-.88-6.557-1.8-9.836-2.679C62.918,327.319,60.879,329.2,58.8,331.117Z" transform="translate(-21.967 -39.912)"/>
    <path id="Path_2094" data-name="Path 2094" class="cls-4" d="M22.2,302.2c1.2,2.759,2.4,5.6,3.558,8.4,3.438.96,6.837,1.879,10.2,2.839,2.079-1.919,4-3.8,6.037-5.637-1.279-2.679-2.6-5.438-3.878-8.116-3.2-.88-6.477-1.8-9.676-2.679C26.438,298.679,24.279,300.4,22.2,302.2Z" transform="translate(0 -22.867)"/>
    <path id="Path_2095" data-name="Path 2095" class="cls-4" d="M29.6,268.478c1.119,2.519,2.319,5.078,3.478,7.677,3.2.88,6.477,1.8,9.676,2.679,1.919-1.719,3.8-3.438,5.717-5-1.279-2.519-2.519-5-3.718-7.357-3.039-.88-6.157-1.8-9.236-2.679C33.558,265.359,31.6,266.919,29.6,268.478Z" transform="translate(-4.441 -2.941)"/>
    <path id="Path_2096" data-name="Path 2096" class="cls-4" d="M104.2,289.758c1.319,2.519,2.679,5.118,4.078,7.716,3.119.88,6.237,1.8,9.356,2.679,1.639-1.8,3.2-3.478,4.838-5.118q-2.219-3.778-4.318-7.437c-2.919-.8-5.957-1.719-8.916-2.6C107.638,286.519,105.919,288.119,104.2,289.758Z" transform="translate(-49.215 -15.665)"/>
    <path id="Path_2097" data-name="Path 2097" class="cls-4" d="M100.7,323.738c1.4,2.839,2.919,5.6,4.318,8.476,3.279.88,6.557,1.8,9.876,2.679,1.719-2,3.478-3.958,5.118-5.8-1.559-2.679-2.959-5.438-4.478-8.116-3.119-.88-6.237-1.8-9.356-2.679C104.338,320.1,102.539,321.9,100.7,323.738Z" transform="translate(-47.114 -35.651)"/>
    <path id="Path_2098" data-name="Path 2098" class="cls-4" d="M85.238,303.827a5.452,5.452,0,0,0,1.919.28,2.271,2.271,0,0,0,1.319-.44,2.232,2.232,0,0,0,.6-1.479,2.111,2.111,0,0,0-.68-1.8,5.6,5.6,0,0,0-2.4-1.2c-1.279-.44-2.6-.68-3.8-1.119a.72.72,0,0,0-.8.08.92.92,0,0,0-.44.52c-.36,2.439-.68,5-.96,7.6.68.16,1.4.36,2.079.52,0,.08.36-2.4.44-3.8C83.518,303.307,84.318,303.507,85.238,303.827ZM83,299.788c.8.24,1.639.44,2.4.68a3.119,3.119,0,0,1,1.2.52.727.727,0,0,1,.28.76.837.837,0,0,1-.44.6,1.731,1.731,0,0,1-1.2-.16c-.8-.24-1.719-.44-2.519-.68A4.563,4.563,0,0,0,83,299.788Z" transform="translate(-34.69 -23.456)"/>
    <path id="Path_2099" data-name="Path 2099" class="cls-4" d="M75,295.3a7.621,7.621,0,0,0,1.119.28,2.22,2.22,0,0,1,.68.44,1.173,1.173,0,0,1,.24.68,1.022,1.022,0,0,0-.08.44,20.99,20.99,0,0,1-2.079-.68A4.681,4.681,0,0,1,75,295.3Z" transform="translate(-31.614 -21.847)"/>
    <path id="Path_2100" data-name="Path 2100" class="cls-4" d="M73.06,299.9a7.63,7.63,0,0,0,1.119.28,2.219,2.219,0,0,1,.68.44.845.845,0,0,1,.24.68c-.24,1.879-.52,3.8-.76,5.717-.76-.16-1.479-.44-2.239-.68C72.46,304.378,72.74,302.139,73.06,299.9Z" transform="translate(-29.949 -24.607)"/>
    <path id="Path_2101" data-name="Path 2101" class="cls-4" d="M69.8,263.458c1.279,2.4,2.439,4.918,3.8,7.357,3.119.88,6.157,1.8,9.316,2.679,1.719-1.639,3.438-3.2,5.118-4.838-1.319-2.4-2.679-4.758-3.878-7.157-2.919-.88-5.877-1.719-8.8-2.6C73.358,260.5,71.6,261.9,69.8,263.458Z" transform="translate(-28.569)"/>
    <rect id="Rectangle_42" data-name="Rectangle 42" class="cls-2" width="61.532" height="5.198" transform="translate(184.847 291.205)"/>
    <text id="GROUP_HOLDINGS" data-name="GROUP HOLDINGS" class="cls-5" transform="translate(174.469 295.222)"><tspan x="0" y="0">GROUP HOLDINGS</tspan></text>
  </g>
</svg>
