<?xml version="1.0" encoding="UTF-8" standalone="no"?>
<!DOCTYPE svg PUBLIC "-//W3C//DTD SVG 1.1//EN" "http://www.w3.org/Graphics/SVG/1.1/DTD/svg11.dtd">
<svg width="100%" height="100%" viewBox="0 0 286 55" version="1.1" xmlns="http://www.w3.org/2000/svg" xmlns:xlink="http://www.w3.org/1999/xlink" xml:space="preserve" xmlns:serif="http://www.serif.com/" style="fill-rule:evenodd;clip-rule:evenodd;stroke-linejoin:round;stroke-miterlimit:1.41421;">
    <g transform="matrix(1,0,0,1,-22.2,-258.9)">
        <g transform="matrix(1,0,0,1,22.2,258.9)">
            <path d="M18.35,40.511C19.95,44.171 21.709,47.781 23.364,51.541C27.726,52.741 31.937,53.897 36.349,55C38.756,52.393 41.212,49.886 43.519,47.329C41.664,43.669 39.859,40.159 38.205,36.7C34.094,35.6 29.983,34.444 25.871,33.341C23.514,35.748 20.957,38.104 18.35,40.511ZM39.357,36.6C41.112,40.16 43.017,43.619 44.772,47.229C48.883,48.329 52.994,49.485 57.156,50.588C59.312,48.081 61.518,45.624 63.574,43.318C61.619,39.959 59.864,36.499 57.959,33.14C54.048,32.04 50.138,30.884 46.227,29.781C43.919,32.037 41.663,34.293 39.357,36.6ZM234.879,42.777C234.879,41.407 235.238,40.323 235.956,39.524C236.722,38.725 237.725,38.325 238.964,38.325C240.187,38.325 241.19,38.725 241.973,39.524C242.706,40.339 243.073,41.423 243.073,42.777C243.073,44.13 242.706,45.206 241.973,46.005C241.222,46.788 240.22,47.179 238.964,47.179C237.692,47.179 236.689,46.788 235.956,46.005C235.238,45.223 234.879,44.146 234.879,42.777ZM190.604,46.984L190.139,46.984C189.682,46.984 189.397,46.755 189.283,46.299L189.21,45.981C188.916,46.405 188.566,46.715 188.158,46.91C187.734,47.09 187.269,47.179 186.764,47.179C185.557,47.179 184.603,46.78 183.902,45.981C183.185,45.198 182.826,44.122 182.826,42.752C182.826,41.399 183.176,40.331 183.878,39.548C184.611,38.733 185.582,38.325 186.788,38.325C187.832,38.325 188.696,38.578 189.381,39.083C190.049,39.621 190.449,40.323 190.579,41.187L189.405,41.187C189.063,41.187 188.81,41.032 188.647,40.722C188.533,40.526 188.37,40.347 188.158,40.184C187.832,39.956 187.4,39.842 186.862,39.842C186.16,39.842 185.606,40.094 185.198,40.6C184.791,41.138 184.587,41.855 184.587,42.752C184.587,43.665 184.799,44.383 185.223,44.905C185.63,45.41 186.209,45.663 186.959,45.663C187.514,45.663 187.97,45.508 188.329,45.198C188.688,44.872 188.916,44.424 189.014,43.853L187.987,43.853C187.742,43.853 187.534,43.767 187.363,43.596C187.192,43.425 187.106,43.217 187.106,42.972L187.106,42.41L190.604,42.41L190.604,46.984ZM199.365,42.777C199.365,41.407 199.724,40.323 200.441,39.524C201.208,38.725 202.21,38.325 203.45,38.325C204.673,38.325 205.675,38.725 206.458,39.524C207.192,40.339 207.559,41.423 207.559,42.777C207.559,44.13 207.192,45.206 206.458,46.005C205.708,46.788 204.705,47.179 203.45,47.179C202.178,47.179 201.175,46.788 200.441,46.005C199.724,45.223 199.365,44.146 199.365,42.777ZM276.924,46.984L276.46,46.984C276.003,46.984 275.718,46.755 275.604,46.299L275.53,45.981C275.237,46.405 274.886,46.715 274.479,46.91C274.055,47.09 273.59,47.179 273.084,47.179C271.878,47.179 270.924,46.78 270.223,45.981C269.505,45.198 269.146,44.122 269.146,42.752C269.146,41.399 269.497,40.331 270.198,39.548C270.932,38.733 271.902,38.325 273.109,38.325C274.152,38.325 275.017,38.578 275.701,39.083C276.37,39.621 276.769,40.323 276.9,41.187L275.726,41.187C275.383,41.187 275.131,41.032 274.968,40.722C274.854,40.526 274.69,40.347 274.479,40.184C274.152,39.956 273.72,39.842 273.182,39.842C272.481,39.842 271.927,40.094 271.519,40.6C271.111,41.138 270.907,41.855 270.907,42.752C270.907,43.665 271.119,44.383 271.543,44.905C271.951,45.41 272.53,45.663 273.28,45.663C273.834,45.663 274.291,45.508 274.65,45.198C275.008,44.872 275.237,44.424 275.335,43.853L274.307,43.853C274.063,43.853 273.855,43.767 273.684,43.596C273.512,43.425 273.427,43.217 273.427,42.972L273.427,42.41L276.924,42.41L276.924,46.984ZM284.472,40.991L283.494,40.991C283.119,40.991 282.85,40.82 282.687,40.477C282.605,40.314 282.491,40.176 282.345,40.062C282.051,39.85 281.652,39.744 281.146,39.744C280.657,39.744 280.306,39.833 280.094,40.013C279.85,40.192 279.727,40.445 279.727,40.771C279.727,41.211 280.2,41.537 281.146,41.749C281.423,41.831 281.627,41.88 281.757,41.896C282.051,41.994 282.308,42.071 282.528,42.128C282.748,42.186 282.923,42.23 283.054,42.263C283.282,42.361 283.51,42.459 283.739,42.557C284.065,42.752 284.318,43.005 284.497,43.315C284.676,43.657 284.766,44.032 284.766,44.44C284.766,45.32 284.472,46.005 283.885,46.494C283.298,46.951 282.467,47.179 281.391,47.179C280.282,47.179 279.45,46.943 278.896,46.47C278.292,45.997 277.966,45.296 277.917,44.366L279.63,44.366C279.695,44.856 279.882,45.198 280.192,45.394C280.518,45.622 280.967,45.736 281.537,45.736C282.043,45.736 282.426,45.646 282.687,45.467C282.948,45.288 283.078,45.027 283.078,44.684C283.078,44.163 282.345,43.739 280.877,43.413L280.828,43.388C280.828,43.388 280.763,43.372 280.632,43.339C279.801,43.16 279.246,42.972 278.969,42.777C278.643,42.597 278.415,42.336 278.284,41.994C278.121,41.7 278.04,41.325 278.04,40.869C278.04,40.07 278.317,39.442 278.871,38.985C279.426,38.545 280.233,38.325 281.293,38.325C282.287,38.325 283.054,38.553 283.592,39.01C284.146,39.515 284.44,40.176 284.472,40.991ZM210.337,38.545L210.337,43.804C210.337,44.456 210.46,44.937 210.704,45.247C210.965,45.54 211.381,45.687 211.952,45.687C212.506,45.687 212.922,45.54 213.199,45.247C213.46,44.953 213.59,44.472 213.59,43.804L213.59,38.545L215.327,38.545L215.327,44C215.327,45.043 215.033,45.834 214.446,46.372C213.908,46.91 213.077,47.179 211.952,47.179C210.826,47.179 209.995,46.91 209.457,46.372C208.87,45.834 208.576,45.043 208.576,44L208.576,39.475C208.576,39.23 208.662,39.014 208.833,38.827C209.004,38.639 209.212,38.545 209.457,38.545L210.337,38.545ZM193.333,46.984L191.597,46.984L191.597,39.45C191.597,39.206 191.682,38.998 191.854,38.827C192.025,38.655 192.233,38.57 192.477,38.57L195.681,38.57C196.595,38.57 197.271,38.765 197.712,39.157C198.168,39.564 198.396,40.16 198.396,40.942C198.396,41.464 198.282,41.896 198.054,42.239C197.858,42.565 197.548,42.801 197.125,42.948C197.5,43.078 197.76,43.274 197.907,43.535C198.054,43.779 198.144,44.195 198.176,44.782L198.225,45.785C198.225,45.883 198.225,45.989 198.225,46.103C198.225,46.217 198.233,46.323 198.25,46.421C198.299,46.715 198.396,46.902 198.543,46.984L196.635,46.984C196.554,46.821 196.505,46.649 196.489,46.47C196.456,46.209 196.44,46.03 196.44,45.932L196.415,45.027C196.383,44.538 196.285,44.187 196.122,43.975C195.942,43.796 195.624,43.706 195.168,43.706L193.333,43.706L193.333,46.984ZM228.823,46.984L227.087,46.984L227.087,39.45C227.087,39.206 227.172,38.998 227.344,38.827C227.515,38.655 227.723,38.57 227.967,38.57L228.823,38.57L228.823,41.7L232.297,41.7L232.297,38.57L234.058,38.57L234.058,46.984L232.297,46.984L232.297,43.241L228.823,43.241L228.823,46.984ZM263.09,46.984L261.378,46.984L261.378,39.45C261.378,39.206 261.464,38.998 261.635,38.827C261.806,38.655 262.014,38.562 262.259,38.545L263.188,38.545L266.612,44.342L266.612,38.545L268.325,38.545L268.325,46.984L266.539,46.984L263.09,41.187L263.09,46.984ZM253.669,46.984L250.832,46.984L250.832,39.45C250.832,39.206 250.917,38.998 251.088,38.827C251.26,38.655 251.467,38.57 251.712,38.57L254.134,38.57C255.422,38.57 256.384,38.912 257.02,39.597C257.656,40.314 257.974,41.374 257.974,42.777C257.974,43.527 257.859,44.203 257.631,44.807C257.37,45.426 257.028,45.899 256.604,46.225C256.245,46.503 255.862,46.698 255.454,46.812C255.063,46.927 254.468,46.984 253.669,46.984ZM218.008,46.984L216.271,46.984L216.271,39.45C216.271,39.206 216.357,38.998 216.528,38.827C216.699,38.655 216.907,38.57 217.152,38.57L220.013,38.57C220.91,38.57 221.579,38.798 222.019,39.255C222.475,39.711 222.704,40.388 222.704,41.285C222.704,42.133 222.484,42.801 222.043,43.29C221.603,43.747 220.967,43.975 220.136,43.975L218.008,43.975L218.008,46.984ZM245.827,45.418L249.936,45.418L249.936,46.984L244.091,46.984L244.091,39.45C244.091,39.206 244.176,38.998 244.347,38.827C244.519,38.655 244.727,38.57 244.971,38.57L245.827,38.57L245.827,45.418ZM260.679,46.984L258.942,46.984L258.942,39.45C258.942,39.206 259.028,38.998 259.199,38.827C259.37,38.655 259.578,38.57 259.823,38.57L260.679,38.57L260.679,46.984ZM236.616,42.777C236.616,43.722 236.82,44.44 237.227,44.929C237.635,45.435 238.214,45.687 238.964,45.687C239.698,45.687 240.277,45.435 240.701,44.929C241.125,44.407 241.337,43.69 241.337,42.777C241.337,41.863 241.125,41.138 240.701,40.6C240.277,40.094 239.698,39.842 238.964,39.842C238.214,39.842 237.635,40.094 237.227,40.6C236.82,41.105 236.616,41.831 236.616,42.777ZM201.102,42.777C201.102,43.722 201.305,44.44 201.713,44.929C202.121,45.435 202.7,45.687 203.45,45.687C204.183,45.687 204.762,45.435 205.186,44.929C205.61,44.407 205.822,43.69 205.822,42.777C205.822,41.863 205.61,41.138 205.186,40.6C204.762,40.094 204.183,39.842 203.45,39.842C202.7,39.842 202.121,40.094 201.713,40.6C201.305,41.105 201.102,41.831 201.102,42.777ZM254.134,40.037L252.519,40.037L252.519,45.467L253.913,45.467C254.712,45.467 255.299,45.255 255.674,44.831C256.033,44.44 256.213,43.755 256.213,42.777C256.213,41.831 256.041,41.138 255.699,40.698C255.373,40.257 254.851,40.037 254.134,40.037ZM219.793,40.037L218.008,40.037L218.008,42.459L219.695,42.459C220.152,42.459 220.478,42.361 220.674,42.165C220.886,41.986 220.992,41.676 220.992,41.236C220.992,40.861 220.894,40.559 220.698,40.331C220.47,40.135 220.168,40.037 219.793,40.037ZM195.461,40.013L193.333,40.013L193.333,42.239L195.363,42.239C195.804,42.239 196.13,42.149 196.342,41.969C196.554,41.79 196.66,41.513 196.66,41.138C196.66,40.763 196.554,40.486 196.342,40.306C196.146,40.111 195.853,40.013 195.461,40.013ZM0,25.62C1.5,29.079 3.008,32.639 4.462,36.149C8.774,37.349 13.035,38.505 17.247,39.709C19.854,37.302 22.261,34.946 24.818,32.64C23.218,29.281 21.559,25.821 19.955,22.462C15.944,21.362 11.833,20.206 7.822,19.103C5.314,21.208 2.607,23.364 0,25.62ZM172.993,30.055L172.993,29.211C172.398,30.137 171.595,30.716 170.586,30.948C169.577,31.18 168.577,31.097 167.584,30.7C166.592,30.303 165.74,29.567 165.029,28.492C164.317,27.416 163.962,26.002 163.962,24.249C163.962,22.198 164.433,20.535 165.376,19.262C166.319,17.988 167.832,17.351 169.916,17.351C171.504,17.351 172.977,17.781 174.333,18.641C175.689,19.502 176.367,21.089 176.367,23.405L176.367,30.402C176.367,32.718 175.689,34.298 174.333,35.141C172.977,35.985 171.504,36.407 169.916,36.407C166.873,36.407 164.987,34.984 164.259,32.139L167.882,32.139C168.147,32.602 168.552,32.958 169.098,33.206C169.644,33.454 170.189,33.52 170.735,33.404C171.281,33.289 171.777,32.966 172.224,32.437C172.671,31.907 172.927,31.113 172.993,30.055ZM224.095,35.613L223.4,35.613C223.301,35.579 223.177,35.555 223.028,35.538C222.879,35.522 222.755,35.513 222.656,35.513L222.656,32.784L223.599,32.784C224.261,32.784 224.782,32.627 225.162,32.313C225.542,31.998 225.617,31.494 225.385,30.799L220.77,17.649L224.591,17.649L227.271,26.978L229.603,18.84C229.802,18.046 230.331,17.649 231.191,17.649L233.573,17.649L228.512,32.685C228.115,33.776 227.618,34.554 227.023,35.017C226.427,35.414 225.452,35.613 224.095,35.613ZM41.112,19.052C42.767,22.211 44.471,25.47 46.226,28.728C50.137,29.828 54.047,30.984 57.958,32.087C60.014,29.831 61.969,27.725 64.025,25.67C62.17,22.511 60.365,19.403 58.61,16.345C54.95,15.345 51.14,14.189 47.43,13.086C45.424,14.991 43.268,16.997 41.112,19.052ZM143.958,21.023L140.633,21.023C140.765,19.998 141.228,19.154 142.022,18.493C142.915,17.732 144.189,17.351 145.843,17.351C147.696,17.351 149.085,17.665 150.012,18.294C150.971,18.956 151.451,19.882 151.451,21.073L151.451,25.589C151.451,26.912 151.211,27.946 150.731,28.69C150.251,29.434 149.681,29.972 149.019,30.303C148.324,30.667 147.588,30.89 146.811,30.973C146.033,31.055 145.347,31.097 144.752,31.097C143.561,31.097 142.518,30.774 141.625,30.129C140.732,29.484 140.285,28.417 140.285,26.928C140.285,25.539 140.691,24.547 141.501,23.951C142.312,23.356 143.346,22.959 144.603,22.76C144.768,22.76 144.967,22.735 145.198,22.686C145.43,22.636 145.694,22.595 145.992,22.562C147.448,22.363 148.176,21.933 148.176,21.271C148.176,20.775 147.919,20.453 147.406,20.304C146.894,20.155 146.422,20.08 145.992,20.08C145.529,20.08 145.115,20.147 144.752,20.279C144.388,20.411 144.123,20.659 143.958,21.023ZM212.654,21.023L209.329,21.023C209.462,19.998 209.925,19.154 210.719,18.493C211.612,17.732 212.886,17.351 214.54,17.351C216.392,17.351 217.782,17.665 218.708,18.294C219.667,18.956 220.147,19.882 220.147,21.073L220.147,25.589C220.147,26.912 219.907,27.946 219.428,28.69C218.948,29.434 218.377,29.972 217.716,30.303C217.021,30.667 216.285,30.89 215.507,30.973C214.73,31.055 214.043,31.097 213.448,31.097C212.257,31.097 211.215,30.774 210.322,30.129C209.428,29.484 208.982,28.417 208.982,26.928C208.982,25.539 209.387,24.547 210.198,23.951C211.008,23.356 212.042,22.959 213.299,22.76C213.465,22.76 213.663,22.735 213.895,22.686C214.126,22.636 214.391,22.595 214.689,22.562C216.144,22.363 216.872,21.933 216.872,21.271C216.872,20.775 216.616,20.453 216.103,20.304C215.59,20.155 215.119,20.08 214.689,20.08C214.225,20.08 213.812,20.147 213.448,20.279C213.084,20.411 212.819,20.659 212.654,21.023ZM126.782,21.668L123.308,21.668C123.143,21.338 122.977,21.089 122.812,20.924C122.382,20.461 121.77,20.229 120.976,20.229C120.248,20.229 119.653,20.461 119.19,20.924C118.594,21.586 118.296,22.677 118.296,24.199C118.296,25.721 118.594,26.796 119.19,27.425C119.62,27.954 120.265,28.219 121.125,28.219C121.687,28.219 122.167,28.103 122.564,27.871C122.663,27.838 122.754,27.78 122.837,27.698C122.92,27.615 123.011,27.524 123.11,27.425C123.176,27.325 123.308,27.193 123.507,27.028C123.705,26.862 124.003,26.78 124.4,26.78L126.881,26.78C126.517,28.169 125.823,29.228 124.797,29.955C123.771,30.716 122.481,31.097 120.926,31.097C119.041,31.097 117.569,30.485 116.51,29.261C115.451,28.07 114.922,26.366 114.922,24.15C114.922,22.032 115.435,20.378 116.46,19.187C117.519,17.963 118.991,17.351 120.877,17.351C122.862,17.351 124.4,17.947 125.492,19.138C126.087,19.865 126.517,20.709 126.782,21.668ZM180.316,25.142C180.349,26.168 180.597,26.928 181.06,27.425C181.49,27.954 182.135,28.219 182.995,28.219C183.558,28.219 184.037,28.103 184.434,27.871C184.533,27.838 184.624,27.78 184.707,27.698C184.79,27.615 184.881,27.524 184.98,27.425C185.013,27.325 185.137,27.193 185.352,27.028C185.567,26.862 185.873,26.78 186.27,26.78L188.751,26.78C188.388,28.169 187.693,29.228 186.667,29.955C185.642,30.716 184.352,31.097 182.797,31.097C180.911,31.097 179.439,30.485 178.38,29.261C177.322,28.07 176.792,26.366 176.792,24.15C176.792,22.032 177.305,20.378 178.331,19.187C179.389,17.963 180.861,17.351 182.747,17.351C184.732,17.351 186.27,17.947 187.362,19.138C188.421,20.362 188.95,22.065 188.95,24.249L188.95,24.795C188.95,24.96 188.933,25.076 188.9,25.142L180.316,25.142ZM97.994,25.142C98.028,26.168 98.276,26.928 98.739,27.425C99.169,27.954 99.814,28.219 100.674,28.219C101.237,28.219 101.716,28.103 102.113,27.871C102.212,27.838 102.303,27.78 102.386,27.698C102.469,27.615 102.56,27.524 102.659,27.425C102.692,27.325 102.816,27.193 103.031,27.028C103.246,26.862 103.552,26.78 103.949,26.78L106.43,26.78C106.067,28.169 105.372,29.228 104.346,29.955C103.321,30.716 102.031,31.097 100.476,31.097C98.59,31.097 97.118,30.485 96.059,29.261C95.001,28.07 94.471,26.366 94.471,24.15C94.471,22.032 94.984,20.378 96.01,19.187C97.068,17.963 98.54,17.351 100.426,17.351C102.411,17.351 103.949,17.947 105.041,19.138C106.1,20.362 106.629,22.065 106.629,24.249L106.629,24.795C106.629,24.96 106.612,25.076 106.579,25.142L97.994,25.142ZM258.192,25.142C258.225,26.168 258.473,26.928 258.937,27.425C259.367,27.954 260.012,28.219 260.872,28.219C261.434,28.219 261.914,28.103 262.311,27.871C262.41,27.838 262.501,27.78 262.584,27.698C262.667,27.615 262.758,27.524 262.857,27.425C262.89,27.325 263.014,27.193 263.229,27.028C263.444,26.862 263.75,26.78 264.147,26.78L266.628,26.78C266.264,28.169 265.57,29.228 264.544,29.955C263.519,30.716 262.228,31.097 260.673,31.097C258.788,31.097 257.316,30.485 256.257,29.261C255.198,28.07 254.669,26.366 254.669,24.15C254.669,22.032 255.182,20.378 256.207,19.187C257.266,17.963 258.738,17.351 260.624,17.351C262.609,17.351 264.147,17.947 265.239,19.138C266.297,20.362 266.827,22.065 266.827,24.249L266.827,24.795C266.827,24.96 266.81,25.076 266.777,25.142L258.192,25.142ZM94.344,28.268L94.344,30.849C93.252,30.915 92.07,30.898 90.796,30.799C89.522,30.7 88.886,29.889 88.886,28.368L88.886,13.778L90.672,13.778C91.102,13.778 91.483,13.944 91.813,14.275C92.144,14.605 92.31,15.002 92.31,15.465L92.31,17.699L94.344,17.699L94.344,18.393C94.344,18.889 94.179,19.295 93.848,19.609C93.517,19.923 93.12,20.08 92.657,20.08L92.31,20.08L92.31,27.425C92.31,27.987 92.64,28.268 93.302,28.268L94.344,28.268ZM285.541,28.268L285.541,30.849C284.449,30.915 283.266,30.898 281.993,30.799C280.719,30.7 280.082,29.889 280.082,28.368L280.082,13.778L281.869,13.778C282.299,13.778 282.679,13.944 283.01,14.275C283.341,14.605 283.506,15.002 283.506,15.465L283.506,17.699L285.541,17.699L285.541,18.393C285.541,18.889 285.375,19.295 285.044,19.609C284.714,19.923 284.317,20.08 283.853,20.08L283.506,20.08L283.506,27.425C283.506,27.987 283.837,28.268 284.499,28.268L285.541,28.268ZM130.928,30.849L127.554,30.849L127.554,13.778L129.241,13.778C129.704,13.778 130.101,13.944 130.432,14.275C130.763,14.605 130.928,15.002 130.928,15.465L130.928,19.386C131.524,18.393 132.368,17.765 133.459,17.5C134.551,17.235 135.593,17.302 136.586,17.699C137.512,18.096 138.289,18.724 138.918,19.584C139.546,20.444 139.861,21.635 139.861,23.157L139.861,30.849L136.536,30.849L136.536,24.001C136.536,23.504 136.495,23.05 136.412,22.636C136.329,22.223 136.139,21.801 135.841,21.371C135.345,20.676 134.667,20.329 133.807,20.329C132.88,20.329 132.169,20.659 131.673,21.321C131.177,21.983 130.928,22.892 130.928,24.05L130.928,30.849ZM114.745,21.172L113.604,21.172C112.645,21.172 111.933,21.404 111.47,21.867C111.007,22.33 110.775,23.058 110.775,24.05L110.775,30.849L107.302,30.849L107.302,24.447C107.302,23.157 107.492,22.074 107.872,21.197C108.253,20.32 108.774,19.617 109.436,19.088C110.064,18.592 110.8,18.228 111.644,17.996C112.487,17.765 113.356,17.649 114.249,17.649L114.745,17.649L114.745,21.172ZM76.027,30.849L72.504,30.849L72.504,15.565C72.504,15.068 72.678,14.647 73.025,14.299C73.372,13.952 73.794,13.778 74.29,13.778L76.027,13.778L76.027,30.849ZM79.777,30.849L76.303,30.849L76.303,23.107C76.303,20.858 76.89,19.353 78.065,18.592C79.239,17.831 80.538,17.417 81.96,17.351C83.416,17.351 84.756,17.732 85.98,18.493C87.204,19.253 87.816,20.792 87.816,23.107L87.816,30.849L86.079,30.849C85.583,30.849 85.177,30.692 84.863,30.377C84.549,30.063 84.392,29.658 84.392,29.162L84.392,22.413C84.392,21.619 84.152,21.04 83.672,20.676C83.193,20.312 82.655,20.13 82.059,20.13C81.464,20.13 80.935,20.312 80.472,20.676C80.008,21.04 79.777,21.619 79.777,22.413L79.777,30.849ZM155.548,30.849L152.074,30.849L152.074,23.107C152.074,20.858 152.661,19.353 153.836,18.592C155.01,17.831 156.308,17.417 157.731,17.351C159.187,17.351 160.526,17.732 161.75,18.493C162.974,19.253 163.587,20.792 163.587,23.107L163.587,30.849L161.85,30.849C161.353,30.849 160.948,30.692 160.634,30.377C160.32,30.063 160.163,29.658 160.163,29.162L160.163,22.413C160.163,21.619 159.923,21.04 159.443,20.676C158.963,20.312 158.426,20.13 157.83,20.13C157.235,20.13 156.705,20.312 156.242,20.676C155.779,21.04 155.548,21.619 155.548,22.413L155.548,30.849ZM270.973,30.849L267.5,30.849L267.5,23.107C267.5,20.858 268.087,19.353 269.261,18.592C270.436,17.831 271.734,17.417 273.157,17.351C274.612,17.351 275.952,17.732 277.176,18.493C278.4,19.253 279.012,20.792 279.012,23.107L279.012,30.849L277.275,30.849C276.779,30.849 276.374,30.692 276.06,30.377C275.745,30.063 275.588,29.658 275.588,29.162L275.588,22.413C275.588,21.619 275.348,21.04 274.869,20.676C274.389,20.312 273.851,20.13 273.256,20.13C272.66,20.13 272.131,20.312 271.668,20.676C271.205,21.04 270.973,21.619 270.973,22.413L270.973,30.849ZM237.769,30.849L234.296,30.849L234.296,23.107C234.296,20.858 234.883,19.353 236.057,18.592C237.232,17.831 238.53,17.417 239.953,17.351C240.714,17.351 241.458,17.434 242.186,17.599C242.914,17.765 243.575,18.096 244.171,18.592C244.667,18.162 245.254,17.856 245.932,17.674C246.611,17.492 247.314,17.384 248.041,17.351C249.497,17.351 250.837,17.732 252.061,18.493C253.285,19.253 253.897,20.792 253.897,23.107L253.897,30.849L252.16,30.849C251.664,30.849 251.259,30.692 250.944,30.377C250.63,30.063 250.473,29.658 250.473,29.162L250.473,22.413C250.473,21.619 250.233,21.04 249.753,20.676C249.274,20.312 248.736,20.13 248.141,20.13C247.545,20.13 247.008,20.312 246.528,20.676C246.048,21.04 245.808,21.619 245.808,22.413L245.808,30.849L242.384,30.849L242.384,22.413C242.384,21.619 242.144,21.04 241.665,20.676C241.185,20.312 240.647,20.13 240.052,20.13C239.457,20.13 238.927,20.312 238.464,20.676C238.001,21.04 237.769,21.619 237.769,22.413L237.769,30.849ZM198.98,30.849L195.457,30.849L195.457,15.565C195.457,15.068 195.63,14.647 195.978,14.299C196.325,13.952 196.747,13.778 197.243,13.778L203.049,13.778C204.868,13.778 206.225,14.241 207.118,15.168C208.044,16.094 208.507,17.467 208.507,19.286C208.507,21.007 208.061,22.363 207.168,23.356C206.274,24.282 204.984,24.745 203.297,24.745L198.98,24.745L198.98,30.849ZM35.547,26.923C36.322,27.183 37.137,27.302 37.954,27.274C38.55,27.268 39.129,27.075 39.609,26.722C40.08,26.218 40.347,25.557 40.361,24.867C40.455,24.023 40.137,23.183 39.508,22.612C38.642,21.876 37.609,21.361 36.5,21.112C34.9,20.56 33.241,20.26 31.737,19.712C31.415,19.539 31.018,19.579 30.737,19.812C30.477,19.951 30.28,20.184 30.186,20.464C29.735,23.522 29.334,26.731 28.986,29.99C29.838,30.19 30.741,30.441 31.593,30.642C31.593,30.742 32.044,27.634 32.144,25.879C33.391,26.271 34.394,26.522 35.547,26.923ZM26.218,20.556C26.675,20.708 27.143,20.825 27.618,20.907C27.933,21.037 28.222,21.224 28.47,21.459C28.692,21.684 28.802,21.997 28.77,22.311C28.47,24.667 28.118,27.074 27.817,29.481C26.864,29.281 25.962,28.929 25.009,28.629C25.469,26.171 25.818,23.364 26.218,20.556ZM148.225,24.199C147.762,24.431 147.117,24.646 146.29,24.844C145.529,25.01 145.148,25.092 145.148,25.092C144.553,25.258 144.123,25.473 143.858,25.737C143.627,26.101 143.511,26.465 143.511,26.829C143.511,27.325 143.66,27.722 143.958,28.02C144.255,28.285 144.685,28.417 145.248,28.417C146.174,28.417 146.902,28.152 147.431,27.623C147.96,27.094 148.225,26.366 148.225,25.44L148.225,24.199ZM216.922,24.199C216.458,24.431 215.813,24.646 214.986,24.844C214.225,25.01 213.845,25.092 213.845,25.092C213.249,25.258 212.819,25.473 212.555,25.737C212.323,26.101 212.207,26.465 212.207,26.829C212.207,27.325 212.356,27.722 212.654,28.02C212.952,28.285 213.382,28.417 213.944,28.417C214.871,28.417 215.598,28.152 216.128,27.623C216.657,27.094 216.922,26.366 216.922,25.44L216.922,24.199ZM167.336,24.348C167.336,26.631 167.998,27.896 169.321,28.144C170.644,28.392 171.62,28.086 172.249,27.226C172.546,26.862 172.762,26.292 172.894,25.514C173.026,24.737 173.034,23.968 172.919,23.207C172.803,22.446 172.53,21.768 172.1,21.172C171.67,20.577 171.041,20.279 170.214,20.279C169.089,20.279 168.329,20.692 167.932,21.52C167.535,22.347 167.336,23.289 167.336,24.348ZM32.739,21.859M32.739,21.859C33.739,22.159 34.795,22.41 35.747,22.711C36.287,22.82 36.799,23.042 37.247,23.363C37.546,23.58 37.685,23.957 37.598,24.316C37.542,24.639 37.338,24.917 37.047,25.068C36.539,25.183 36.007,25.112 35.547,24.868C34.547,24.568 33.391,24.316 32.388,24.016C32.642,23.326 32.762,22.594 32.739,21.859ZM97.994,22.909L103.056,22.909C102.99,22.016 102.758,21.354 102.361,20.924C101.931,20.461 101.319,20.229 100.525,20.229C99.797,20.229 99.202,20.461 98.739,20.924C98.276,21.387 98.028,22.049 97.994,22.909ZM258.192,22.909L263.254,22.909C263.188,22.016 262.956,21.354 262.559,20.924C262.129,20.461 261.517,20.229 260.723,20.229C259.995,20.229 259.4,20.461 258.937,20.924C258.473,21.387 258.225,22.049 258.192,22.909ZM180.316,22.909L185.377,22.909C185.311,22.016 185.079,21.354 184.682,20.924C184.252,20.461 183.64,20.229 182.846,20.229C182.118,20.229 181.523,20.461 181.06,20.924C180.597,21.387 180.349,22.049 180.316,22.909ZM202.602,16.756L198.98,16.756L198.98,21.668L202.404,21.668C203.33,21.668 203.992,21.47 204.389,21.073C204.819,20.709 205.034,20.08 205.034,19.187C205.034,18.426 204.835,17.814 204.438,17.351C203.975,16.954 203.363,16.756 202.602,16.756ZM3.71,8.323C5.11,11.482 6.618,14.69 8.072,17.949C12.083,19.049 16.194,20.205 20.205,21.308C22.612,19.152 24.968,16.996 27.375,15.041C25.775,11.882 24.216,8.774 22.712,5.816C18.902,4.716 14.991,3.56 11.13,2.457C8.674,4.412 6.217,6.368 3.71,8.323ZM26.572,18.25C27.029,18.402 27.497,18.519 27.972,18.601C28.287,18.731 28.576,18.918 28.824,19.153C29.011,19.398 29.116,19.697 29.124,20.005C29.05,20.179 29.016,20.368 29.024,20.557C28.141,20.318 27.271,20.034 26.417,19.705C26.408,19.215 26.46,18.727 26.572,18.25ZM23.865,5.716C25.465,8.724 26.923,11.883 28.628,14.941C32.539,16.041 36.349,17.197 40.31,18.3C42.466,16.244 44.622,14.289 46.727,12.233C45.072,9.225 43.368,6.267 41.864,3.259C38.204,2.159 34.494,1.103 30.834,0C28.327,2.005 26.121,3.76 23.865,5.716Z" style="fill:white;fill-rule:nonzero;"/>
        </g>
    </g>
</svg>
