<svg xmlns="http://www.w3.org/2000/svg" viewBox="0 0 64.024 55">
  <defs>
    <style>
      .cls-1 {
        fill: #fff;
      }
    </style>
  </defs>
  <g id="Group_288" data-name="Group 288" transform="translate(-22.2 -258.9)">
    <path id="Path_2093" data-name="Path 2093" class="cls-1" d="M58.8,332.57c1.6,3.66,3.359,7.27,5.014,11.03,4.362,1.2,8.573,2.356,12.985,3.459,2.407-2.607,4.863-5.114,7.17-7.671-1.855-3.66-3.66-7.17-5.314-10.629-4.111-1.1-8.222-2.256-12.334-3.359C63.964,327.807,61.407,330.163,58.8,332.57Z" transform="translate(-18.25 -33.159)"/>
    <path id="Path_2094" data-name="Path 2094" class="cls-1" d="M22.2,303.518c1.5,3.459,3.008,7.019,4.462,10.529,4.312,1.2,8.573,2.356,12.785,3.56,2.607-2.407,5.014-4.763,7.571-7.069-1.6-3.359-3.259-6.819-4.863-10.178-4.011-1.1-8.122-2.256-12.133-3.359C27.514,299.106,24.807,301.262,22.2,303.518Z" transform="translate(0 -18.998)"/>
    <path id="Path_2095" data-name="Path 2095" class="cls-1" d="M29.6,269.666c1.4,3.159,2.908,6.367,4.362,9.626,4.011,1.1,8.122,2.256,12.133,3.359,2.407-2.156,4.763-4.312,7.17-6.267-1.6-3.159-3.159-6.267-4.663-9.225-3.81-1.1-7.721-2.256-11.582-3.359C34.564,265.755,32.107,267.711,29.6,269.666Z" transform="translate(-3.69 -2.443)"/>
    <path id="Path_2096" data-name="Path 2096" class="cls-1" d="M104.2,290.966c1.655,3.159,3.359,6.418,5.114,9.676,3.911,1.1,7.821,2.256,11.732,3.359,2.056-2.256,4.011-4.362,6.067-6.417q-2.783-4.738-5.415-9.325c-3.66-1-7.47-2.156-11.18-3.259C108.512,286.905,106.356,288.911,104.2,290.966Z" transform="translate(-40.888 -13.014)"/>
    <path id="Path_2097" data-name="Path 2097" class="cls-1" d="M100.7,325.119c1.755,3.56,3.66,7.019,5.415,10.629,4.111,1.1,8.222,2.256,12.384,3.359,2.156-2.507,4.362-4.964,6.418-7.27-1.955-3.359-3.71-6.819-5.615-10.178-3.911-1.1-7.821-2.256-11.732-3.359C105.262,320.556,103.006,322.812,100.7,325.119Z" transform="translate(-39.143 -29.619)"/>
    <path id="Path_2098" data-name="Path 2098" class="cls-1" d="M86.568,305.311a6.837,6.837,0,0,0,2.407.351,2.848,2.848,0,0,0,1.655-.552,2.8,2.8,0,0,0,.752-1.855A2.648,2.648,0,0,0,90.529,301a7.017,7.017,0,0,0-3.008-1.5c-1.6-.552-3.259-.852-4.763-1.4a.9.9,0,0,0-1,.1,1.154,1.154,0,0,0-.551.652c-.451,3.058-.852,6.267-1.2,9.526.852.2,1.755.451,2.607.652,0,.1.451-3.008.551-4.763C84.412,304.659,85.415,304.91,86.568,305.311Zm-2.808-5.064c1,.3,2.056.551,3.008.852a3.912,3.912,0,0,1,1.5.652.912.912,0,0,1,.351.953,1.05,1.05,0,0,1-.551.752,2.171,2.171,0,0,1-1.5-.2c-1-.3-2.156-.552-3.159-.852A5.723,5.723,0,0,0,83.76,300.247Z" transform="translate(-28.821 -19.488)"/>
    <path id="Path_2100" data-name="Path 2100" class="cls-1" d="M73.3,299.9a9.565,9.565,0,0,0,1.4.351,2.783,2.783,0,0,1,.852.552,1.06,1.06,0,0,1,.3.852c-.3,2.356-.652,4.763-.953,7.17-.953-.2-1.855-.552-2.808-.852C72.551,305.515,72.9,302.708,73.3,299.9Z" transform="translate(-24.882 -20.444)"/>
    <path id="Path_2101" data-name="Path 2101" class="cls-1" d="M69.8,264.616c1.6,3.008,3.058,6.167,4.763,9.225,3.911,1.1,7.721,2.256,11.682,3.359,2.156-2.056,4.312-4.011,6.417-6.067-1.655-3.008-3.359-5.966-4.863-8.974-3.66-1.1-7.37-2.156-11.03-3.259C74.262,260.905,72.056,262.66,69.8,264.616Z" transform="translate(-23.735)"/>
  </g>
</svg>
